<svg viewBox="0 0 36 36" xmlns="http://www.w3.org/2000/svg" xmlns:xlink="http://www.w3.org/1999/xlink" width="36.000000" height="36.000000" fill="none">
	<rect id="Stroke 2/shopping-bag" width="36.000000" height="36.000000" x="0.000000" y="0.000000" fill="rgb(255,255,255)" fill-opacity="0" />
	<path id="Vector" d="M5.5 13.5C5.5 12.3954 6.39543 11.5 7.5 11.5L7.5 9.5C5.29086 9.5 3.5 11.2909 3.5 13.5L5.5 13.5ZM7.5 11.5L28.5 11.5L28.5 9.5L7.5 9.5L7.5 11.5ZM28.5 11.5C29.6046 11.5 30.5 12.3954 30.5 13.5L32.5 13.5C32.5 11.2909 30.7092 9.5 28.5 9.5L28.5 11.5ZM30.5 13.5L30.5 30L32.5 30L32.5 13.5L30.5 13.5ZM30.5 30C30.5 31.1046 29.6046 32 28.5 32L28.5 34C30.7092 34 32.5 32.2092 32.5 30L30.5 30ZM28.5 32L7.5 32L7.5 34L28.5 34L28.5 32ZM7.5 32C6.39542 32 5.5 31.1046 5.5 30L3.5 30C3.5 32.2092 5.29087 34 7.5 34L7.5 32ZM5.5 30L5.5 13.5L3.5 13.5L3.5 30L5.5 30Z" fill-rule="nonzero" stroke="rgb(255,255,255)" stroke-linecap="round" stroke-linejoin="round" stroke-width="2" />
	<path id="Vector" d="M11 15C11 15.5523 11.4477 16 12 16C12.5523 16 13 15.5523 13 15L11 15ZM23 14.5332C23 15.0855 23.4477 15.5332 24 15.5332C24.5523 15.5332 25 15.0855 25 14.5332L23 14.5332ZM13 15L13 9L11 9L11 15L13 15ZM13 9C13 6.23857 15.2386 4 18 4L18 2C14.134 2 11 5.13401 11 9L13 9ZM18 4C20.7614 4 23 6.23858 23 9L25 9C25 5.134 21.8659 2 18 2L18 4ZM23 9L23 14.5332L25 14.5332L25 9L23 9Z" fill-rule="nonzero" stroke="rgb(255,255,255)" stroke-linecap="round" stroke-linejoin="round" stroke-width="2" />
</svg>
