<svg width="25" height="31" viewBox="0 0 25 31" fill="none" xmlns="http://www.w3.org/2000/svg">
<g filter="url(#filter0_d_41_375)">
<path d="M12.25 13.5C11.5083 13.5 10.7833 13.2801 10.1666 12.868C9.54993 12.456 9.06928 11.8703 8.78545 11.1851C8.50162 10.4998 8.42736 9.74584 8.57206 9.01841C8.71675 8.29098 9.0739 7.6228 9.59835 7.09835C10.1228 6.5739 10.791 6.21675 11.5184 6.07206C12.2458 5.92736 12.9998 6.00162 13.6851 6.28545C14.3703 6.56928 14.956 7.04993 15.368 7.66661C15.7801 8.2833 16 9.00832 16 9.75C15.9988 10.7442 15.6033 11.6973 14.9003 12.4003C14.1973 13.1033 13.2442 13.4988 12.25 13.5ZM12.25 7.5C11.805 7.5 11.37 7.63196 11 7.8792C10.63 8.12643 10.3416 8.47783 10.1713 8.88896C10.001 9.3001 9.95642 9.7525 10.0432 10.189C10.1301 10.6254 10.3443 11.0263 10.659 11.341C10.9737 11.6557 11.3746 11.87 11.811 11.9568C12.2475 12.0436 12.6999 11.999 13.111 11.8287C13.5222 11.6584 13.8736 11.37 14.1208 11C14.368 10.63 14.5 10.195 14.5 9.75C14.4994 9.15345 14.2622 8.5815 13.8403 8.15967C13.4185 7.73784 12.8466 7.5006 12.25 7.5Z" fill="#FFF9F4"/>
<path d="M12.25 22.5L5.92301 15.0382C5.83509 14.9262 5.74809 14.8135 5.66201 14.7C4.58124 13.2763 3.99739 11.5374 4.00001 9.75C4.00001 7.56196 4.8692 5.46354 6.41638 3.91637C7.96355 2.36919 10.062 1.5 12.25 1.5C14.438 1.5 16.5365 2.36919 18.0836 3.91637C19.6308 5.46354 20.5 7.56196 20.5 9.75C20.5026 11.5366 19.919 13.2747 18.8388 14.6978L18.838 14.7C18.838 14.7 18.613 14.9955 18.5793 15.0353L12.25 22.5ZM6.85901 13.7963C6.86051 13.7963 7.03451 14.0272 7.07426 14.0767L12.25 20.181L17.4325 14.0685C17.4655 14.0272 17.641 13.7948 17.6418 13.794C18.5246 12.6308 19.0017 11.2103 19 9.75C19 7.95979 18.2888 6.2429 17.023 4.97703C15.7571 3.71116 14.0402 3 12.25 3C10.4598 3 8.74291 3.71116 7.47704 4.97703C6.21117 6.2429 5.50001 7.95979 5.50001 9.75C5.49844 11.2112 5.97534 12.6326 6.85901 13.7963Z" fill="#FFF9F4"/>
</g>
<defs>
<filter id="filter0_d_41_375" x="-3.75" y="0" width="32" height="32" filterUnits="userSpaceOnUse" color-interpolation-filters="sRGB">
<feFlood flood-opacity="0" result="BackgroundImageFix"/>
<feColorMatrix in="SourceAlpha" type="matrix" values="0 0 0 0 0 0 0 0 0 0 0 0 0 0 0 0 0 0 127 0" result="hardAlpha"/>
<feOffset dy="4"/>
<feGaussianBlur stdDeviation="2"/>
<feComposite in2="hardAlpha" operator="out"/>
<feColorMatrix type="matrix" values="0 0 0 0 0 0 0 0 0 0 0 0 0 0 0 0 0 0 0.25 0"/>
<feBlend mode="normal" in2="BackgroundImageFix" result="effect1_dropShadow_41_375"/>
<feBlend mode="normal" in="SourceGraphic" in2="effect1_dropShadow_41_375" result="shape"/>
</filter>
</defs>
</svg>
